<?xml version="1.0" encoding="UTF-8"?>
<!-- Generator: Adobe Illustrator 24.0.0, SVG Export Plug-In . SVG Version: 6.00 Build 0)  -->
<svg version="1.1" id="Calque_3" xmlns="http://www.w3.org/2000/svg" xmlns:xlink="http://www.w3.org/1999/xlink" x="0px" y="0px" viewBox="0 0 616.7 499.2" style="enable-background:new 0 0 616.7 499.2;" xml:space="preserve">
<style type="text/css">
	.st0{fill:#F39200;}
	.st1{fill:#008D36;}
</style>
<title>LOGOoneci</title>
<g>
	<path class="st0" d="M516.2,226.2c0-1-0.6-1.9-1.5-2.3c-1.3-0.5-2.6-0.8-3.9-0.9c-3.8-0.1-7.7-0.1-11.5,0c-1.6,0-3.2,0.1-4.8,0.4   c-4.7,0.5-8.3,4.6-8,9.3c0,0.7,0,1.3,0,2c0,29.4,0,58.8,0,88.2c0.1,1.4-0.1,2.9-0.4,4.3c-0.7,4.6-4.3,8.2-8.9,9   c-2.5,0.4-5,0.5-7.6,0.3c-5.5-0.3-10-4.3-10.9-9.7c-0.2-1.2-0.2-2.5-0.2-3.7c0-73.9,0-147.8,0-221.8c0-6.8,0.1-13.7,0-20.5   c0-5.9,4.1-10.9,9.9-12.1c1.1-0.2,2.2-0.3,3.3-0.4c2.9-0.2,5.7,0.3,8.3,1.5c4.1,1.9,6.7,6.1,6.6,10.7c0,30.4,0,60.8,0,91.2   c0,0.7,0,1.4,0,2.1c0,2.9,1.7,5.6,4.4,6.8c2,1.1,4.3,1.6,6.5,1.7c4.6,0,9.2,0,13.9,0c0.7,0,1.3-0.1,1.9-0.2c1.7-0.2,3-1.6,3-3.3   c0.1-0.7,0-1.4,0-2.1c0-32.3,0-64.7,0-97c0.1-4-0.6-8-2-11.8c-1.4-4.1-3.7-7.9-6.5-11.2c-7-7.7-16.6-12.5-26.9-13.5   c-1.8-0.2-3.7-0.6-5.5-0.9h-5.1c-1.6,0.3-3.3,0.7-4.9,0.9c-8.2,0.8-16,3.7-22.7,8.5c-6.3,4.5-10.9,11-12.9,18.5   c-0.9,3.7-1.3,7.4-1.1,11.2c0,80.9,0,161.8,0,242.6c0,1,0,2,0,2.9c0,8.8,3.5,17.2,9.7,23.4c5,5.1,11.3,8.7,18.3,10.4   c6.8,1.8,13.9,2.4,20.9,1.7c5.8-0.4,11.4-1.8,16.8-4c5.5-2.2,10.3-5.7,14.1-10.2c5.2-6.2,8-14.2,7.9-22.3   c-0.1-32.5-0.1-64.9,0-97.4C516.3,227.7,516.3,226.9,516.2,226.2z"/>
	<path class="st0" d="M331.4,47.2c-5.3-0.1-10.5-0.2-15.8,0c-5.6,0-10.3,4.5-10.3,10.2c0,0.2,0,0.5,0,0.7c0.1,3.8,0.2,7.7,0.3,11.5   c0.1,5.7,0.3,11.3,0.4,17l0.4,17l0.4,17l0.4,16.8c0.1,5.7,0.3,11.4,0.4,17.2c0.1,5.5,0.3,11.1,0.4,16.6c0.1,5.9,0.3,11.7,0.4,17.6   c0.1,5.5,0.3,10.9,0.4,16.4c0.1,6.2,0.3,12.5,0.4,18.7c0.1,4.6,0.2,9.1,0.3,13.7c0,0.3-0.1,0.6-0.3,0.9c-0.5-0.8-0.8-1.7-0.9-2.6   c-1.8-10.3-3.5-20.6-5.3-30.9c-1.3-7.5-2.5-15-3.7-22.5c-1.3-7.6-2.5-15.1-3.8-22.7c-0.9-5.5-2-11-2.9-16.5   c-1.3-7.6-2.5-15.1-3.8-22.7c-1.2-6.9-2.4-13.8-3.6-20.7c-0.9-5.1-1.6-10.1-2.5-15.2c-1.5-9.2-3.1-18.3-4.6-27.5   c-0.8-5.7-5.6-10-11.4-9.9c-4.4,0.2-8.8,0-13.3,0c-0.7,0-1.4,0-2.1,0.1c-1.6,0.1-2.9,1.4-2.9,3.1c-0.1,1.2-0.1,2.3-0.1,3.5   c0,99,0,198.1,0,297.1c0,1,0,2,0,2.9c0.1,2.4,1.1,3.6,3.5,3.9c2.1,0.2,4.3,0.3,6.4,0.3c3.6,0.1,7.1-0.1,10.7-0.4   c4.1-0.4,7.6-3.3,8.9-7.2c0.4-1.2,0.5-2.6,0.4-3.8c-0.1-6-0.2-12.1-0.4-18.1c-0.1-5.2-0.2-10.4-0.4-15.6c-0.1-6-0.3-12.1-0.4-18.1   c-0.1-5-0.2-10-0.4-15c-0.3-8.8-0.6-17.5-0.8-26.3c-0.2-5.6-0.3-11.2-0.4-16.8l-0.4-17c-0.1-5.7-0.3-11.3-0.4-17   c-0.2-7.6-0.3-15.2-0.5-22.8c-0.1-3.5-0.2-7-0.3-10.5c0-0.9,0-1.7,0.1-2.6h0.5c0.1,0.1,0.2,0.3,0.3,0.5c0.8,4.5,1.7,9.1,2.5,13.6   c0.5,2.8,0.9,5.5,1.4,8.3c1.1,6.8,2.2,13.6,3.3,20.4c1.2,7.6,2.5,15.1,3.7,22.7c0.9,5.5,1.9,11,2.9,16.5c1.3,7.5,2.4,15,3.7,22.5   c1.1,6.5,2.3,12.9,3.3,19.4c1.2,7.4,2.4,14.7,3.6,22.1c1.4,8.5,2.8,16.9,4.2,25.4c0.6,3.6,1.2,7.3,2.1,10.9   c0.8,4.4,4.1,7.8,8.5,8.8c1.5,0.3,3,0.5,4.4,0.5c3.4,0.1,6.8,0.1,10.1,0c1.2,0,2.5-0.2,3.7-0.4c1.2-0.1,2.2-1,2.5-2.2   s0.4-2.4,0.4-3.7c0-99.7,0-199.4,0-299c0-0.7,0-1.3,0-2C334.9,48.3,334,47.3,331.4,47.2z"/>
	<path class="st0" d="M238.4,136.4c0-3.8-0.2-7.5-0.6-11.3c-1.1-10-4.1-19.6-8.7-28.6c-2.5-4.9-5.4-9.6-8.7-14.1   c-5.4-7.1-11.7-13.3-18.8-18.6c-5.6-4.2-11.7-7.7-18.2-10.5c-11-4.8-22.9-7.5-34.9-8c-7.2-0.3-14.3,0.2-21.3,1.6   c-26.1,4.9-48.8,20.6-62.6,43.3c-3.7,6.2-6.6,12.7-8.7,19.5c-2.6,8.1-3.9,16.6-3.9,25.1c0,45.3,0,90.7,0,136c0,3.1,0.1,6.1,0.5,9.1   c0.7,6.6,2.3,13.1,4.6,19.3c2.5,6.8,5.7,13.3,9.6,19.3c5,7.6,11.2,14.4,18.2,20.2c8.4,7,17.9,12.4,28.1,16.1   c8.4,3,17.2,4.8,26.1,5.3c4.8,0.2,9.6,0.1,14.4-0.2c7.9-0.5,15.6-2.1,23-4.7c9.9-3.4,19.1-8.4,27.3-14.9c7.1-5.5,13.2-12,18.4-19.3   c5.6-7.9,9.9-16.7,12.7-26c2.4-8.3,3.6-16.9,3.6-25.6c0-22.3-0.1-44.5,0-66.8C238.4,180.8,238.4,158.6,238.4,136.4z M213.1,290.6   c-2.1,6.5-5.2,12.6-9.1,18.3c-11.5,16.2-29.2,26.8-48.9,29.4c-11.9,1.6-24,0.3-35.3-3.9c-5.2-1.9-10.1-4.4-14.7-7.5   c-8.5-5.7-15.6-13.1-20.9-21.8c-4.5-7.4-7.6-15.6-9-24.1c-0.9-5.3-1.3-10.7-1.2-16.1c0-42.7,0-85.5,0.1-128.2   c0-11.8,3-23.4,8.8-33.6c6-10.7,14.7-19.5,25.3-25.7c8.7-5.2,18.4-8.4,28.4-9.6c13-1.7,26.1,0.2,38.1,5.6   c17,7.5,30.4,21.5,37.2,38.8c3,7.6,4.5,15.6,4.5,23.8c0,22.4,0,44.8,0,67.1c0,22.4,0,44.9,0,67.3   C216.4,277.2,215.3,284,213.1,290.6z"/>
	<path class="st0" d="M379.8,74.3c0.1-1.9,0.2-2.1,2.1-2.2c3.8,0,7.5,0,11.3,0c5,0,10,0.1,15-0.1c5.4,0,10.1-3.9,11.1-9.2   c0.8-4,0.9-8,0.4-12c-0.2-2-1.8-3.5-3.8-3.5c-0.8-0.1-1.7-0.1-2.5-0.1c-19,0-38,0-57,0c-1,0-2.1,0-3.1,0.1c-1.9,0-3.5,1.6-3.5,3.5   c-0.1,1,0,2.1,0,3.1c0,49.5,0,99,0,148.5c0,49.6,0,99.2,0,148.7c0,1,0,2.1,0,3.1c0,1.8,1.4,3.4,3.3,3.5c1.4,0.2,2.8,0.3,4.3,0.4   c18.8,0,37.6,0,56.4,0c0.8,0,1.6-0.1,2.3-0.2c2.2-0.1,3.9-2,3.7-4.2c0,0,0,0,0-0.1c0.1-2.7,0.1-5.3,0-8c-0.1-1.6-0.4-3.2-0.9-4.8   c-0.9-3-3-5.4-5.9-6.6c-2.2-0.9-4.5-1.3-6.8-1.3c-7.6,0-15.2,0-22.8,0c-3.6,0-3.7,0.4-3.7-3.6c0-36.4,0-72.9,0-109.3   c0-3.5,0-3.5,3.5-3.5c6.8,0,13.5,0,20.3-0.1c5.8-0.1,10.7-4.3,11.5-10c0.3-2.9,0.5-5.8,0.5-8.7c0.2-4.3-1.2-6.2-6.1-6.1   c-8.6,0.1-17.3,0-26,0c-3.8,0-3.7,0.3-3.7-3.7c0-37.3,0-74.7,0-112C379.7,75.4,379.7,74.8,379.8,74.3z"/>
	<path class="st0" d="M561.5,54.6c0-1.2,0-2.5-0.1-3.7c-0.1-2.4-1.1-3.6-3.4-3.6c-5.5-0.1-11.1-0.1-16.6,0c-4.4,0.5-8.1,3.6-9.5,7.8   c-0.2,1.4-0.4,2.8-0.3,4.3c0,97.1,0,194.1,0,291.2c0,0.9,0,1.8,0.1,2.7c0.1,2.2,1.7,4.1,3.9,4.5c1.1,0.2,2.3,0.4,3.5,0.4   c4.7,0,9.5,0,14.2,0c1.1,0,2.2-0.1,3.3-0.3c2.8-0.2,4.9-2.6,4.8-5.4c0-1.1,0-2.2,0-3.3c0-49.1,0-98.1,0-147.2   C561.5,152.8,561.5,103.7,561.5,54.6z"/>
</g>
<g>
	<path class="st1" d="M200.3,200.3c0,11.2,0,22.4,0,33.6c0,6.1,0.1,12.2,0.1,18.3c0,6-1,12-3.1,17.6c-3.5,8.8-10.1,16-18.5,20.4   c-11.8,6.7-26,7.2-38.3,1.5c-7.9-3.4-14.6-9.3-18.9-16.8c-3.9-6.4-5.8-13.7-5.7-21.2c0-33.8,0.1-67.5,0-101.3   c0-1.8,0.2-3.6,0.6-5.4c2.6-8.8,11.7-13.8,20.5-11.2c7.1,2.1,11.9,8.5,11.9,15.9c0.1,4.9,0.1,9.8,0.1,14.6c0,26.9,0,53.7,0,80.6   c0,3.1,0.2,6.1,0.6,9.1c0.6,4.4,4.6,7.5,9,6.9c0.4-0.1,0.8-0.1,1.2-0.2c2.9-0.7,5.3-2.6,6.6-5.3c0.4-0.8,0.5-1.7,0.5-2.6   c0.1-6.7,0.2-13.4,0.2-20.1c0.1-21.1,0.1-42.2,0.1-63.2c0-7.2,0-14.5-0.4-21.7c-0.2-7.8-3.3-15.3-8.7-21   c-5.7-5.8-13.1-9.6-21.2-10.7c-13.8-1.8-27.3,4.7-34.5,16.5c-3,4.9-4.6,10.5-4.7,16.3c-0.1,27.7-0.1,55.4,0,83.2   c0,7.5,0.2,15.1,0.2,22.6c-0.1,5.9,0.9,11.7,3,17.2c3.8,10,10.2,18.9,18.5,25.7c5.9,4.9,12.8,8.6,20.2,10.7   c1.2,0.3,2.4,0.7,3.5,1.2c1.7,0.6,2.6,2.4,2.2,4.1c-0.1,1.7-1.6,3-3.3,2.9c0,0,0,0-0.1,0c-1.5-0.1-3-0.4-4.4-0.8   c-9.4-3-18.1-7.9-25.4-14.4c-3.1-2.9-6-6.1-8.7-9.5c-4.6-5.9-8-12.5-10.3-19.6c-1.6-4.8-2.5-9.8-2.8-14.9c-0.4-6.5-0.5-13-0.5-19.5   c0.2-20.3,0.2-40.7,0.2-61.1c0-8.8,0.1-17.7,0.2-26.5c0-4.2,0.6-8.3,1.8-12.3c2.7-9.1,8.5-16.9,16.4-22.1   c18.4-12.4,43.1-8.8,57.2,8.3c5.8,7,9,15.9,9,25c0,33.6,0.1,67.3,0.1,100.9c0.1,2-0.1,4-0.5,6c-0.9,4.7-4.1,8.6-8.5,10.5   c-3,1.7-6.5,2.3-10,1.9c-7-0.9-12.6-6.4-13.6-13.4c-0.3-2.7-0.4-5.4-0.5-8.2c-0.1-1.8,0-3.5,0-5.3c0-29.8,0-59.6,0-89.4   c0-1.2-0.1-2.5-0.2-3.7c-0.9-5-5.6-8.3-10.6-7.5c-1.4,0.2-2.7,0.8-3.9,1.7c-2.2,1.5-3.5,4-3.4,6.7c0,5-0.1,10-0.1,15   c-0.1,23.6-0.1,47.1-0.1,70.7c0,6.2,0.2,12.5,0.3,18.7c0.1,4.1,1,8.2,2.6,11.9c2.7,6.1,7.2,11.3,12.9,14.7   c4.3,2.8,9.2,4.6,14.3,5.4c17.1,2.3,33.2-8.2,38.1-24.7c0.8-3.1,1.3-6.3,1.2-9.5c0-29.1,0.1-58.2,0.1-87.3c0-6.2-0.2-12.4-0.3-18.5   c-0.2-8.6-2.7-17.1-7.1-24.5c-2.3-3.9-4.9-7.5-7.9-10.9c-5.7-6.5-12.8-11.5-20.9-14.7c-2.9-1.1-5.9-2.2-8.8-3.2   c-2-0.4-3.3-2.4-2.8-4.4c0-0.2,0.1-0.4,0.2-0.6c0.4-1.5,1.8-2.4,3.3-2.1c1,0.2,2,0.4,3,0.8c6.3,1.8,12.3,4.4,17.8,7.7   c5.2,3.3,10,7.3,14.1,11.9c3.7,4.2,6.8,8.8,9.5,13.8c3.5,6.1,5.7,12.9,6.5,19.9c0.4,3.6,0.5,7.3,0.5,10.9   c0.1,8.1,0.1,16.1,0.1,24.2c0,7.9,0,15.9,0,23.8H200.3z"/>
	<path class="st1" d="M187.4,200.7c0,14,0,28,0,42c0,3.9,0.1,7.8,0.1,11.7c0.1,3.3-0.5,6.6-1.7,9.7c-3.1,8.6-10.3,15.1-19.1,17.6   c-9.8,3.1-20.6,0.8-28.3-6c-3.6-3.2-6.4-7.3-7.9-11.9c-1.4-3.9-2.1-8.1-2-12.2c0.1-14.5,0-29,0-43.5c0-18.2,0-36.3,0-54.5   c0-0.7,0-1.4,0.1-2.1c0.4-1.8,1.7-3.1,3.5-3.5c1.1-0.2,2.3,0.3,2.9,1.2c0.7,1.1,1.1,2.4,1.1,3.7c0,2.5,0,5.1,0,7.6   c0,30.5,0,61,0,91.6c0,2.1,0.2,4.3,0.6,6.4c2.6,11.8,14.3,19.3,26.1,16.6c0.6-0.1,1.3-0.3,1.9-0.5c9.1-2.8,15.2-11.2,15.2-20.7   c0-31.6,0.1-63.1,0-94.7c0-4.2-0.1-8.3-0.4-12.5c-0.3-4.6-1.4-9.2-3.3-13.4c-2.1-4.9-5-9.3-8.7-13.1c-7.3-7.6-16.7-12.6-27-14.5   c-6.3-1-12.8-0.7-19,0.8c-4.4,1.1-8.6,2.7-12.5,4.8c-0.6,0.4-1.3,0.6-2,0.8c-1.9,0.5-3.9-0.7-4.4-2.7c-0.3-1.4,0.1-2.8,1.2-3.7   c0.6-0.4,1.2-0.8,1.8-1.2c9.2-5.3,19.8-7.6,30.4-6.8c9.7,0.7,19.1,3.7,27.3,9c9.1,6.1,16.2,14.9,20.3,25.1   c2.9,7.1,4.2,14.7,3.8,22.3c-0.1,6.4,0,12.8,0,19.1C187.5,182.5,187.5,191.6,187.4,200.7L187.4,200.7z"/>
	<path class="st1" d="M103.3,204.3c0-9.4,0-18.9,0-28.3c0-8.3,0-16.5,0-24.8c-0.1-6.4,2.1-12.7,6.3-17.6   c10.6-12.6,29.4-14.3,42.1-3.7c1.8,1.5,3.5,3.3,4.9,5.2c3.4,4.4,5.3,9.8,5.3,15.4c0.1,10.5,0.1,21.1,0.1,31.6c0,15.5,0,31.1,0,46.6   c0,8,0,16,0.1,24c0,0.7,0,1.3-0.2,1.9c-0.3,1.8-1.9,3.1-3.7,3.1c-1.8,0.2-3.4-1.2-3.6-3v-0.1c-0.1-0.9-0.2-1.8-0.2-2.7   c0-27.7,0-55.3,0-83c0-5.8,0-11.6,0-17.4c0.1-4.6-1.4-9.1-4.3-12.7c-4.5-6.1-11.9-9.4-19.5-8.5c-6.2,0.3-11.9,3.5-15.6,8.5   c-2.7,3.6-4.2,7.9-4.3,12.3c-0.1,2.6-0.1,5.2-0.1,7.8c0,9.7,0,19.4,0,29.1c0,16.1-0.1,32.1-0.1,48.2c0,6.7-0.1,13.4,0.3,20.1   c0.3,8.9,3.3,17.5,8.6,24.7c7.8,10.5,19.5,17.4,32.4,19.1c10,1.3,20.2-0.6,29.1-5.3c0.6-0.3,1.1-0.6,1.7-0.9c1.7-1,3.9-0.5,4.9,1.2   c0,0.1,0.1,0.1,0.1,0.2c1,1.6,0.6,3.8-1.1,4.9c-0.2,0.1-0.3,0.2-0.5,0.3c-3.3,2-6.9,3.7-10.6,4.9c-12.2,3.7-25.2,3.5-37.2-0.8   c-5.6-2-10.7-5.1-15.2-8.9c-5.2-4.4-9.7-9.6-13.2-15.5c-4.4-7.3-6.6-15.7-6.5-24.2C103.4,238.8,103.4,221.6,103.3,204.3   L103.3,204.3z"/>
</g>
<g>
	<path d="M461.7,457.1l-0.1-0.1c-3.7-0.8-6.6-3.8-7.3-7.5c-1.5-5-1.5-10.4,0-15.4c0.5-1.6,1.2-3.1,2.2-4.5c2.7-3.8,8-4.8,11.8-2.1   c1.2,0.9,2.2,2,2.8,3.4c1.1,2.2,1.7,4.7,1.8,7.1c0.4,3.6,0.1,7.3-0.7,10.8c-0.4,2.7-1.9,5-4.1,6.6c-1.2,0.6-2.4,1.2-3.7,1.7H461.7z    M459.3,441.5c0.1,1.7,0.2,3.5,0.5,5.2c0.3,1.3,0.7,2.6,1.4,3.8c0.5,1.1,1.7,1.6,2.8,1.2c0.5-0.2,1-0.7,1.2-1.2   c0.4-0.7,0.7-1.4,0.8-2.2c0.4-2.7,0.6-5.4,0.7-8.1c-0.1-2.1-0.4-4.3-0.9-6.3c-0.3-1.3-0.9-2.5-2.5-2.6c-1.6,0-2.1,1.2-2.7,2.4   C459.6,436.1,459.2,438.8,459.3,441.5z"/>
	<path d="M397.3,457.1c-0.4-0.1-0.7-0.2-1.1-0.3c-3.6-0.3-6.7-2.6-8.1-5.9c-2.8-5.8-2.7-12.7,0.3-18.4c2.3-4.8,7.7-7.4,12.9-6.1   c0.5,0.1,1,0.3,1.5,0.5c0,0.4,0,0.8-0.1,1.2c-0.2,1.2-0.5,2.4-0.8,3.5c-1-0.2-2-0.3-3-0.3c-2.3,0.1-4.3,1.5-5,3.7   c-1.6,4.1-1.7,8.6-0.2,12.8c0.8,2.6,3.4,4.2,6.1,3.8c0.6,0,1.3-0.2,2.2-0.3l0.6,4.9l-3.7,0.9L397.3,457.1L397.3,457.1z"/>
	<path d="M564.7,411.4H551v-30.2h6v25.1h7.7V411.4z"/>
	<path d="M476.8,426.4h5.5l7.6,18.9h0.3l-0.4-18.8h5.1c0.4,1.4,0.5,28.2,0,30.2h-5.2c-1.3-3-2.7-6.1-3.9-9.2   c-1.3-3.1-2.4-6.2-3.8-9.3v18.5h-5.2V426.4z"/>
	<path d="M318.6,445.6c-0.3-6.4-0.3-12.7-0.1-19.2h5.2v30.3h-5.5l-7.7-19v18.9h-4.8c-0.4-1.4-0.4-28.2,0-30.1c0.5,0,1-0.1,1.5-0.1   c1.2,0,2.3,0,3.6,0L318.6,445.6z"/>
	<path d="M282.8,400.3l-0.4-19.1h5.4v30.1h-5.6l-7.7-19.2l0.3,19.1h-5c-0.4-1.4-0.5-28.2,0-30.2c1.4,0,2.8,0,4.2,0   c0.8,0,1.1,0.5,1.3,1.2c2.2,5.4,4.3,10.9,6.5,16.3c0.3,0.6,0.5,1.3,0.8,1.9L282.8,400.3z"/>
	<path d="M193.9,411.4h-5.5l-7.6-18.7v18.6h-4.9c-0.4-1.4-0.5-27.2-0.1-30.2c0.8,0,1.7-0.1,2.6-0.1c0.8,0,1.7,0,2.6,0l7.9,19.5   c-0.1-6.4-0.5-12.8-0.3-19.4h5.2L193.9,411.4z"/>
	<path d="M338.8,411.3v-29.7c4.1-1,8.3-0.8,12.3,0.5c2.9,1.3,4.9,3.8,5.5,6.9c1.3,4.7,1.2,9.6-0.1,14.2c-0.5,1.5-1.2,2.9-2.1,4.2   c-1.7,2.2-4.2,3.7-6.9,3.9C344.7,411.8,341.7,411.8,338.8,411.3z M345.1,386v20.7c2,0.1,2.9-0.1,3.8-1.3c0.8-1.1,1.5-2.3,1.9-3.6   c0.9-3.7,0.9-7.5,0.2-11.2c-0.1-0.5-0.2-1-0.4-1.5C349.8,386.8,347.4,385.5,345.1,386z"/>
	<path d="M264.8,426.7c4-0.9,8.2-0.8,12.1,0.5c2,0.7,3.6,2.2,4.5,4.1c0.8,1.7,1.4,3.5,1.7,5.3c0.7,3.8,0.5,7.7-0.5,11.4   c-1,5-5.4,8.6-10.5,8.6c-2.4,0.1-4.8,0-7.3,0L264.8,426.7L264.8,426.7z M270.9,451.9c1.8,0.4,3.6-0.5,4.4-2.1   c0.8-1.7,1.4-3.5,1.7-5.3c0.3-2.2,0.3-4.4,0-6.6c-0.3-1.7-0.8-3.4-1.7-4.9c-0.8-1.7-2.8-2.4-4.5-1.7L270.9,451.9z"/>
	<path d="M181.5,426.7c3.2-0.7,6.6-0.7,9.8-0.2c3.7,0.6,6.7,3.3,7.7,6.9c1,3.1,1.3,6.4,1,9.6c-0.2,1.8-0.5,3.6-0.9,5.4   c-0.9,4.2-4.4,7.4-8.6,8c-3,0.4-6,0.5-9,0.1V426.7z M187.6,431.2c-0.4,6.9-0.3,13.8,0.1,20.8c1.6,0.3,3.2-0.4,3.9-1.8   c0.6-1.1,1.1-2.2,1.4-3.4c0.7-3.2,0.8-6.5,0.3-9.7c-0.2-1.4-0.7-2.8-1.4-4C191.3,431.4,189.4,430.6,187.6,431.2z"/>
	<path d="M81,397.4c-0.2,1.4-0.5,4-1,6.6c-0.3,1.3-0.8,2.6-1.6,3.7c-2.5,4-7.8,5.3-11.9,2.8c-1.1-0.7-2.1-1.6-2.8-2.8   c-1.3-2.1-2-4.5-2.3-7c-0.7-4.3-0.3-8.6,1-12.7c0.7-2.2,2-4.1,3.8-5.5c3.6-2.9,8.8-2.3,11.7,1.3c0.4,0.5,0.7,1,1,1.6   C80.5,389.3,81.2,393.3,81,397.4z M67.3,395.9c0.2,2.3,0.3,4.1,0.6,5.9c0.2,1,0.5,2,0.9,3c0.3,1,1.2,1.8,2.3,1.8   c1.1-0.1,2-0.8,2.3-1.9c0.3-0.7,0.5-1.5,0.7-2.2c0.9-4.1,0.9-8.4,0-12.5c-0.2-1.1-0.6-2.1-1.2-3c-0.5-1-1.7-1.3-2.7-0.8   c-0.3,0.2-0.6,0.4-0.7,0.7c-0.6,0.7-1,1.5-1.2,2.4C67.8,391.6,67.6,394,67.3,395.9z"/>
	<path d="M265.7,397.3c-0.2,1.6-0.6,4.2-1.1,6.8c-0.3,1.1-0.7,2.2-1.3,3.2c-2.2,4.2-7.4,5.7-11.6,3.5c-0.8-0.5-1.6-1.1-2.3-1.8   c-1.1-1.3-1.9-2.8-2.4-4.4c-1.6-5.1-1.6-10.6-0.2-15.8c0.6-1.9,1.5-3.7,2.9-5.2c3-3.5,8.4-3.9,11.9-0.9c0.8,0.7,1.5,1.6,2,2.6   C265.1,389.2,265.8,393.2,265.7,397.3z M252,395.8c0.2,2.3,0.2,4.1,0.6,5.9c0.2,1.3,0.7,2.6,1.3,3.8c0.4,1,1.6,1.5,2.6,1   c0.4-0.2,0.7-0.4,0.9-0.8c0.6-0.7,1-1.5,1.3-2.4c0.3-1.4,0.6-2.8,0.7-4.2c0.4-3.3,0.2-6.6-0.6-9.8c-0.3-1-0.8-1.9-1.5-2.6   c-0.6-0.8-1.8-1-2.6-0.3c-0.2,0.1-0.3,0.3-0.4,0.5c-0.6,0.7-1.1,1.6-1.3,2.6C252.5,391.6,252.2,393.9,252,395.8z"/>
	<path d="M216.9,411.3h-6c-0.2-1.1-0.4-2.2-0.6-3.3c-0.2-1.1-0.5-2.3-0.7-3.4h-5.2l-1.5,6.7H197l6.6-30.1h7.2   C213.1,391.1,214.9,401.2,216.9,411.3z M209.1,399.8l-1.8-12H207l-2,12H209.1z"/>
	<path d="M305,411.3l-1.6-6.7h-5.3l-1.4,6.7h-6l6.8-30.3h7.2l5.9,30.3H305z M302.9,399.8l-1.8-11.6h-0.4l-1.9,11.6H302.9z"/>
	<path d="M463.1,411.4h-6l-1.3-6.7h-5.5l-1.4,6.7h-5.7l6.5-30.1h7.3L463.1,411.4z M451.1,399.7h4.1l-1.8-11.9h-0.3L451.1,399.7z"/>
	<path d="M530.4,381.2h6.7l-7.2,30.1h-6.8l-6.7-30.2c2.2-0.1,4.4-0.2,6.5-0.1l3.9,22.3c0.7-2.6,0.8-5,1.2-7.4c0.5-2.5,0.8-5,1.2-7.5   C529.6,386.1,530,383.7,530.4,381.2z"/>
	<path d="M411,426.4h7.2l6,30.1c-1.9,0.2-3.9,0.3-5.8,0.2l-1.4-6.8h-5.5l-1.5,6.8h-5.5l-0.2-0.2l-0.1-0.2c0.1-0.7,0.2-1.4,0.4-2.1   C406.8,444.9,408.9,435.7,411,426.4z M416.5,444.9l-1.9-12c-1.2,3.9-2,7.9-2.4,12H416.5z"/>
	<path d="M410.9,411.3v-30.1h13.3v5.1H417v6.7c2.2,0.5,4.4-0.1,6.8,0.3v4.8H417v8.1h7.7v5.1H410.9z"/>
	<path d="M137.9,426.4h13.4v5h-7.2c-0.2,2.4-0.1,4.5-0.1,6.9h6.9v5h-6.8v8.1h7.6v5.1h-13.8L137.9,426.4z"/>
	<path d="M156.3,386.3v6.9h6.8c0.2,1.7,0.3,3.3,0.2,5h-6.9v8.1h7.7v5.1h-13.7v-30.1h13.1v5.1L156.3,386.3z"/>
	<path d="M367.4,398.1v8.2h7.8v5.1c-4.5,0.2-9,0-13.7,0.1v-30.2h13.1v5h-7.2c-0.1,2.3-0.2,4.6-0.1,6.9h6.8v5h-6.7V398.1z"/>
	<path d="M300.6,431.5h-7.3v6.9h6.7v5h-6.7v8.2h7.8v4.9c-4.5,0.4-9,0.5-13.5,0.2c-0.4-1.4-0.5-26.6-0.2-29.9   c4.3-0.5,8.7-0.5,13.1-0.2C300.8,428.1,300.8,429.8,300.6,431.5z"/>
	<path d="M210,431.4v7h6.9v4.9H210v8.2h7.7v5.1h-13.3c-0.4-1.3-0.5-27.8-0.1-30.1h13c0.2,1.6,0.2,3.3,0.1,5H210V431.4z"/>
	<path d="M85,381.2h13.2v5H91v7.8h6.7v4.9h-6.8v12.3c-1.9,0.2-3.8,0.3-5.7,0.2C84.7,410,84.6,383.9,85,381.2z"/>
	<path d="M115.6,394v5h-6.9v12.3c-1.9,0.2-3.9,0.3-5.9,0.2v-30.2H116v5c-2.3,0.4-4.7,0-7.2,0.2v7.6L115.6,394z"/>
	<path d="M364.5,456.6h-5.9c-0.4-1.3-0.6-27.4-0.1-30.2h13.3v5h-7.2c-0.1,2.6,0,5.1-0.1,7.7h6.9v5h-6.8L364.5,456.6z"/>
	<path d="M432.1,386.6h-5.2v-5.1c5.6-0.5,11.2-0.5,16.8-0.1v5.3h-5.4v24.7c-2.1,0.2-4,0.1-6.2,0.1   C432.1,403.2,432.1,395,432.1,386.6z"/>
	<path d="M473.5,386.6v24.8c-2,0.1-3.9,0.1-6.1,0v-24.7h-5.3v-5.5h16.8c0.2,1.8,0.2,3.6,0,5.4L473.5,386.6L473.5,386.6z"/>
	<path d="M227.3,411.4h-6c-0.1-2.7,0-5.4,0-8.1s0-5.5,0-8.2v-8.4H216v-5.5h16.9v5.3h-5.4c0,2.3-0.1,4.3-0.1,6.4c0,2,0,4,0,6   L227.3,411.4L227.3,411.4z"/>
	<path d="M147.2,381.7l-0.9,4.6c-0.3,0-0.6,0-0.9,0c-3.2-1-6.5,0.8-7.5,4c0,0.1-0.1,0.2-0.1,0.3c-1.2,3.6-1.2,7.4-0.2,11   c0.6,3.2,3.8,5.4,7,4.7c0.5,0,0.9-0.1,1.6-0.2l0.6,4.6c-4.7,2.1-10.3,0.7-13.4-3.4c-1.3-1.9-2.2-4.2-2.4-6.5   c-0.6-3.6-0.4-7.3,0.5-10.8c0.6-2,1.5-3.9,2.9-5.5C137.7,381.1,142.7,379.9,147.2,381.7z"/>
	<path d="M504.5,381.5l-1,4.9c-0.6-0.1-1-0.2-1.4-0.2c-2.6-0.6-5.3,0.7-6.5,3.2c-0.6,1.6-1.1,3.3-1.3,5c-0.3,2.4-0.2,4.8,0.5,7.1   c0.6,3.2,3.7,5.3,7,4.8c0.5-0.1,1-0.1,1.6-0.2c0.1,0.2,0.2,0.5,0.3,0.8c0.2,1.3,0.3,2.6,0.4,4.1c-0.9,0.2-1.7,0.4-2.6,0.6   c-5.6,1.2-11.1-2.2-12.5-7.7c-1.5-4.7-1.5-9.8,0.1-14.6c1.5-5.6,7-9.1,12.7-8.4C502.7,381.1,503.6,381.3,504.5,381.5z"/>
	<path d="M434.8,456.6h-6.2v-24.8h-5.4v-5.4c5.5-0.2,11.1,0,16.8-0.1c0.2,1.8,0.2,3.7,0,5.5h-5.3L434.8,456.6z"/>
	<path d="M159.3,431.8H154v-5.4h16.7c0.3,1.8,0.3,3.6,0.1,5.4h-5.5v24.8h-5.8c0-0.7-0.1-1.5-0.1-2.2c0-6.8,0-13.5,0-20.3   C159.4,433.4,159.3,432.7,159.3,431.8z"/>
	<path d="M343.8,431.8h-5.4v24.7h-5.9c-0.1-2,0-4.1-0.1-6.1c0-2,0-4,0-6v-12.5H327c-0.3-1.8-0.4-3.7-0.1-5.5h16.8L343.8,431.8z"/>
	<path d="M235.3,451.7h7.8v4.9h-13.6c-0.4-1.3-0.5-27.6-0.1-30.1h5.8c0.2,2,0.1,4.1,0.1,6.1c0,2.1,0,4.3,0,6.4   C235.3,438.9,235.3,451.7,235.3,451.7z"/>
	<path d="M392.7,381.2v25.1h7.8v5.1c-4.5,0-9,0-13.7,0v-30.2H392.7z"/>
	<path d="M314.3,381.2h5.7v25.2h7.8v4.9h-13.4C314.1,410,314,384.3,314.3,381.2z"/>
	<path d="M253.4,426.3c1.7,0,3.2,0,4.6,0c0.4,0,0.8,0.1,1.2,0.1v30.1h-5.9L253.4,426.3z"/>
	<path d="M353,456.6h-5.7c-0.4-1.3-0.6-27.7-0.1-30.3c1.2,0,2.5,0,3.8,0c0.6,0,1.3,0.1,2,0.1L353,456.6z"/>
	<path d="M376.6,426.3c1.6,0,3.2,0,4.8,0c0.3,0,0.6,0.1,0.8,0.1v30.1h-5.8C376.1,454.2,376.2,427.7,376.6,426.3z"/>
	<path d="M545.5,411.4h-5.8v-30.2h5.8V411.4z"/>
	<path d="M513.4,381.2v30.1h-5.8v-30.1H513.4z"/>
	<path d="M126.6,411.4h-5.5c-0.4-1.5-0.5-28.2,0-30.2h5.3C126.8,382.6,127,407.4,126.6,411.4z"/>
	<path d="M241.9,411.3h-5.8v-30.1c0.5-0.1,1-0.1,1.4-0.1c1.4,0,2.8,0,4.2,0C242.1,382.7,242.2,408.6,241.9,411.3z"/>
	<path d="M449.2,426.4v30.1h-5.7v-30.1H449.2z"/>
	<path d="M399.9,392.1l3-11l5.2-0.4c-1,2.5-1.9,4.7-2.9,6.9c-0.4,0.9-1,1.8-1.5,2.7C402.6,392.4,402.4,392.4,399.9,392.1z"/>
	<path d="M245.4,426.3l5.1-0.4c-0.5,1.3-0.8,2.5-1.2,3.5c-0.9,2.1-2,4.1-3,6.1c-1.1,2.1-1.3,2.2-3.8,1.9L245.4,426.3z"/>
</g>
</svg>